<?xml version="1.0" encoding="UTF-8" standalone="no"?>
<svg
   xmlns:dc="http://purl.org/dc/elements/1.1/"
   xmlns:cc="http://creativecommons.org/ns#"
   xmlns:rdf="http://www.w3.org/1999/02/22-rdf-syntax-ns#"
   xmlns:svg="http://www.w3.org/2000/svg"
   xmlns="http://www.w3.org/2000/svg"
   viewBox="0 0 1475.2267 601.74664"
   height="601.74664"
   width="1475.2267"
   xml:space="preserve"
   id="svg2"
   version="1.1"><metadata
     id="metadata8"><rdf:RDF><cc:Work
         rdf:about=""><dc:format>image/svg+xml</dc:format><dc:type
           rdf:resource="http://purl.org/dc/dcmitype/StillImage" /></cc:Work></rdf:RDF></metadata><defs
     id="defs6" /><g
     transform="matrix(1.3333333,0,0,-1.3333333,0,601.74667)"
     id="g10"><g
       transform="scale(0.1)"
       id="g12"><path
         id="path14"
         style="fill:#ffffff;fill-opacity:1;fill-rule:nonzero;stroke:none"
         d="m 4238.78,1169.95 c -70.97,-25.9 -146.36,-38.93 -226.3,-38.93 -133.03,0 -237.8,27.03 -314.07,81.09 -76.36,53.97 -114.49,128.97 -114.49,225.24 0,10.37 0.49,20.33 1.37,29.96 0.9,9.61 2.19,19.61 3.96,30 l 125.1,727.98 h 596.33 l -103.77,-617.04 c -1.8,-7.41 -3.17,-14.81 -4.02,-22.17 -0.94,-7.46 -1.37,-14.81 -1.37,-22.23 0,-29.61 8.4,-52.91 25.29,-69.84 16.9,-17.09 44.86,-25.57 83.87,-25.57 40.8,0 73.2,12.17 97.17,36.6 23.96,24.44 46.56,54.34 67.93,89.91 l 106.46,630.34 h 596.23 l -178.3,-1069.84 h -575.06 l 26.66,157.6 c -70.99,-69.57 -141.99,-117.26 -212.99,-143.1" /><path
         id="path16"
         style="fill:#ffffff;fill-opacity:1;fill-rule:nonzero;stroke:none"
         d="M 6061.11,2744.67 5794.94,1155.45 h -596.33 l 266.23,1589.22 h 596.27" /><path
         id="path18"
         style="fill:#ffffff;fill-opacity:1;fill-rule:nonzero;stroke:none"
         d="m 8138.63,1608.25 c 0,-44.4 11.09,-80.28 33.26,-107.7 22.17,-27.34 61.7,-41.03 118.48,-41.03 24.82,0 50.09,5.62 75.8,16.66 25.76,11.07 51.09,24.1 75.95,38.86 l 55.84,326.27 c -19.53,20.71 -39,35.47 -58.43,44.4 -19.63,8.86 -44.44,13.3 -74.63,13.3 -28.4,0 -56.41,-4.77 -83.87,-14.4 -27.44,-9.66 -51.93,-25.5 -73.2,-47.77 -21.33,-22.17 -38.17,-51.8 -50.57,-88.73 -12.46,-37.03 -18.63,-83.63 -18.63,-139.86 m 105.13,-432.74 c -61.23,-29.63 -123.76,-44.49 -187.63,-44.49 -186.37,0 -323.87,38.93 -412.64,116.56 -88.79,77.64 -133.12,183.87 -133.12,318.5 0,97.69 15.93,188.3 47.93,271.89 31.97,83.58 77.59,156.04 137.07,217.54 59.49,61.37 132.69,109.1 219.63,143.16 86.97,34.03 186.32,51.06 298.16,51.06 79.86,0 145.94,-14.11 198.34,-42.23 52.32,-28.07 93.5,-74.72 123.79,-139.82 l 26.6,157.61 h 598.97 L 8979.92,1155.45 h -567.09 l 23.96,139.83 c -67.46,-50.29 -131.74,-90.24 -193.03,-119.77" /><path
         id="path20"
         style="fill:#ffffff;fill-opacity:1;fill-rule:nonzero;stroke:none"
         d="m 10100.6,2210.84 c 71,25.96 146.4,38.89 226.3,38.89 133.1,0 237.8,-27.03 314,-81.02 76.3,-54.04 114.6,-129.14 114.6,-225.33 0,-10.31 -0.5,-20.31 -1.4,-29.94 -1,-9.63 -2.3,-19.57 -4,-29.9 L 10625,1155.45 h -596.3 l 103.9,617.13 c 1.7,7.27 3,14.73 3.9,22.13 0.9,7.4 1.4,14.73 1.4,22.17 0,29.63 -8.5,52.93 -25.3,69.96 -16.9,16.97 -44.9,25.57 -83.9,25.57 -40.85,0 -73.22,-12.27 -97.18,-36.7 -23.97,-24.44 -46.56,-54.34 -67.87,-89.87 l -106.47,-630.39 h -596.32 l 178.33,1069.84 h 575.02 l -26.66,-157.61 c 71.04,69.53 142.05,117.26 213.05,143.16" /><path
         id="path22"
         style="fill:#ffffff;fill-opacity:1;fill-rule:nonzero;stroke:none"
         d="M 7451.83,2192.97 7405,1881.27 h -522.5 c -96.14,0 -155.39,-69.76 -177.93,-209.25 -2.74,-16.88 -4.2,-32.91 -4.2,-48.4 0,-95.37 47.4,-143.01 142.13,-143.01 h 520.46 l -48.3,-326.33 -677.65,2.13 c -208.3,0 -359.57,37.4 -453.87,112.27 -81.33,64.29 -122.03,160.43 -122.03,288.53 0,32.78 2.5,68.5 7.56,106.97 48.77,353.13 292.93,529.45 732.4,528.79 h 650.76" /><path
         id="path24"
         style="fill:#ffffff;fill-opacity:1;fill-rule:nonzero;stroke:none"
         d="M 2833.39,539.852 H 2731.7 v 82.718 h 291.25 V 539.852 H 2921.27 V 9.07031 h -87.88 V 539.852" /><path
         id="path26"
         style="fill:#ffffff;fill-opacity:1;fill-rule:nonzero;stroke:none"
         d="m 3086.78,622.57 h 87.89 v -262.8 h 108.56 v 262.8 h 87.9 V 9.07031 h -87.9 V 282.211 H 3174.67 V 9.07031 h -87.89 V 622.57" /><path
         id="path28"
         style="fill:#ffffff;fill-opacity:1;fill-rule:nonzero;stroke:none"
         d="m 3457.79,622.57 h 261.95 V 539.852 H 3545.68 V 359.77 h 151.65 V 277.039 H 3545.68 V 96.9492 h 174.06 V 9.07031 H 3457.79 V 622.57" /><path
         id="path30"
         style="fill:#ffffff;fill-opacity:1;fill-rule:nonzero;stroke:none"
         d="m 4069.54,331.332 h 42.22 c 71.52,0 72.39,42.219 72.39,103.398 0,57.731 0,105.122 -68.94,105.122 h -45.67 z m -87.89,291.238 h 131.84 c 48.25,0 83.58,-11.191 113.73,-43.082 30.17,-31.879 39.65,-70.648 39.65,-143.898 0,-53.418 -4.32,-89.61 -25,-123.219 -24.12,-39.629 -62.9,-63.762 -127.52,-63.762 h -44.81 V 9.07031 h -87.89 V 622.57" /><path
         id="path32"
         style="fill:#ffffff;fill-opacity:1;fill-rule:nonzero;stroke:none"
         d="m 4430.65,348.57 h 49.98 c 61.17,0 70.65,34.461 70.65,95.641 0,62.039 -10.34,95.641 -74.96,95.641 h -45.67 z m -87.89,274 h 141.32 c 104.25,0 155.09,-61.172 155.09,-180.09 0,-70.648 -19.81,-122.351 -75.82,-153.371 L 4658.13,9.07031 h -93.06 L 4483.21,271.012 h -52.56 V 9.07031 h -87.89 V 622.57" /><path
         id="path34"
         style="fill:#ffffff;fill-opacity:1;fill-rule:nonzero;stroke:none"
         d="m 4802.96,153.832 c 0,-42.23 27.57,-62.0429 59.45,-62.0429 31.89,0 59.47,19.8129 59.47,62.0429 v 323.977 c 0,42.23 -27.58,62.043 -59.47,62.043 -31.88,0 -59.45,-19.813 -59.45,-62.043 z m -87.89,323.977 c 0,99.961 75.83,149.933 147.34,149.933 71.53,0 147.35,-49.972 147.35,-149.933 V 153.832 c 0,-99.9531 -75.82,-149.93356 -147.35,-149.93356 -71.51,0 -147.34,49.98046 -147.34,149.93356 v 323.977" /><path
         id="path36"
         style="fill:#ffffff;fill-opacity:1;fill-rule:nonzero;stroke:none"
         d="m 5268.16,9.07031 h -77.55 L 5065.66,622.57 h 93.07 l 69.8,-428.25 h 1.71 l 70.66,428.25 h 93.07 L 5268.16,9.07031" /><path
         id="path38"
         style="fill:#ffffff;fill-opacity:1;fill-rule:nonzero;stroke:none"
         d="m 5464,622.57 h 261.95 V 539.852 H 5551.89 V 359.77 h 151.65 V 277.039 H 5551.89 V 96.9492 h 174.06 V 9.07031 H 5464 V 622.57" /><path
         id="path40"
         style="fill:#ffffff;fill-opacity:1;fill-rule:nonzero;stroke:none"
         d="m 5796.4,622.57 h 84.45 l 132.7,-369.648 h 1.72 V 622.57 h 87.89 V 9.07031 h -82.72 L 5886.03,377.859 h -1.73 V 9.07031 h -87.9 V 622.57" /><path
         id="path42"
         style="fill:#ffffff;fill-opacity:1;fill-rule:nonzero;stroke:none"
         d="m 6671.82,445.941 h -87.9 v 19.809 c 0,40.5 -17.22,74.102 -62.02,74.102 -48.27,0 -59.47,-38.77 -59.47,-79.27 0,-47.391 4.32,-63.762 49.98,-81.863 l 67.21,-26.707 c 77.55,-29.301 92.2,-78.41 92.2,-168.02 0,-103.4022 -37.92,-180.09356 -151.65,-180.09356 -85.31,0 -149.93,62.90236 -149.93,145.62156 v 32.742 h 87.89 v -27.571 c 0,-31.882 17.23,-62.9019 62.04,-62.9019 59.45,0 63.75,35.3319 63.75,91.3399 0,65.48 -7.74,75.82 -50.83,93.051 l -62.9,25.859 c -75.83,31.012 -95.64,80.992 -95.64,157.68 0,93.062 49.98,168.023 150.79,168.023 87.88,0 146.48,-70.66 146.48,-138.73 v -43.071" /><path
         id="path44"
         style="fill:#ffffff;fill-opacity:1;fill-rule:nonzero;stroke:none"
         d="m 7029.74,146.07 c 0,-75.8278 -61.19,-142.17156 -139.6,-142.17156 -67.2,0 -144.76,32.74216 -144.76,144.76156 v 337.77 c 0,80.14 57.73,141.312 143.04,141.312 80.99,0 141.32,-61.172 141.32,-146.472 v -34.481 h -87.9 v 29.301 c 0,34.469 -20.68,63.762 -54.29,63.762 -43.94,0 -54.28,-30.161 -54.28,-71.52 V 154.691 c 0,-35.332 13.79,-62.9019 53.42,-62.9019 24.13,0 55.15,13.7809 55.15,62.0429 v 30.16 h 87.9 V 146.07" /><path
         id="path46"
         style="fill:#ffffff;fill-opacity:1;fill-rule:nonzero;stroke:none"
         d="m 7196.19,348.57 h 49.98 c 61.18,0 70.66,34.461 70.66,95.641 0,62.039 -10.35,95.641 -74.96,95.641 h -45.68 z m -87.89,274 h 141.31 c 104.26,0 155.11,-61.172 155.11,-180.09 0,-70.648 -19.82,-122.351 -75.83,-153.371 L 7423.67,9.07031 h -93.05 L 7248.76,271.012 h -52.57 V 9.07031 H 7108.3 V 622.57" /><path
         id="path48"
         style="fill:#ffffff;fill-opacity:1;fill-rule:nonzero;stroke:none"
         d="m 7493.36,622.57 h 261.95 V 539.852 H 7581.25 V 359.77 H 7732.9 V 277.039 H 7581.25 V 96.9492 h 174.06 V 9.07031 H 7493.36 V 622.57" /><path
         id="path50"
         style="fill:#ffffff;fill-opacity:1;fill-rule:nonzero;stroke:none"
         d="m 7827.33,622.57 h 261.94 V 539.852 H 7915.21 V 359.77 h 151.66 V 277.039 H 7915.21 V 96.9492 h 174.06 V 9.07031 H 7827.33 V 622.57" /><path
         id="path52"
         style="fill:#ffffff;fill-opacity:1;fill-rule:nonzero;stroke:none"
         d="m 8159.75,622.57 h 84.43 l 132.7,-369.648 h 1.73 V 622.57 h 87.89 V 9.07031 h -82.72 L 8249.35,377.859 h -1.71 V 9.07031 h -87.89 V 622.57" /><path
         id="path54"
         style="fill:#ffffff;fill-opacity:1;fill-rule:nonzero;stroke:none"
         d="m 9029.99,146.07 c 0,-75.8278 -61.19,-142.17156 -139.59,-142.17156 -67.21,0 -144.76,32.74216 -144.76,144.76156 v 337.77 c 0,80.14 57.72,141.312 143.03,141.312 81,0 141.32,-61.172 141.32,-146.472 v -34.481 h -87.9 v 29.301 c 0,34.469 -20.68,63.762 -54.28,63.762 -43.95,0 -54.28,-30.161 -54.28,-71.52 V 154.691 c 0,-35.332 13.78,-62.9019 53.42,-62.9019 24.13,0 55.14,13.7809 55.14,62.0429 v 30.16 h 87.9 V 146.07" /><path
         id="path56"
         style="fill:#ffffff;fill-opacity:1;fill-rule:nonzero;stroke:none"
         d="m 9108.55,622.57 h 87.88 v -262.8 h 108.58 v 262.8 h 87.89 V 9.07031 h -87.89 V 282.211 H 9196.43 V 9.07031 h -87.88 V 622.57" /><path
         id="path58"
         style="fill:#ffffff;fill-opacity:1;fill-rule:nonzero;stroke:none"
         d="m 9563.41,153.832 c 0,-42.23 27.57,-62.0429 59.45,-62.0429 31.89,0 59.46,19.8129 59.46,62.0429 v 323.977 c 0,42.23 -27.57,62.043 -59.46,62.043 -31.88,0 -59.45,-19.813 -59.45,-62.043 z m -87.89,323.977 c 0,99.961 75.83,149.933 147.34,149.933 71.52,0 147.35,-49.972 147.35,-149.933 V 153.832 c 0,-99.9531 -75.83,-149.93356 -147.35,-149.93356 -71.51,0 -147.34,49.98046 -147.34,149.93356 v 323.977" /><path
         id="path60"
         style="fill:#ffffff;fill-opacity:1;fill-rule:nonzero;stroke:none"
         d="m 9854.46,9.07031 h 87.8906 v 613.5 H 9854.46 Z" /><path
         id="path62"
         style="fill:#ffffff;fill-opacity:1;fill-rule:nonzero;stroke:none"
         d="m 10310.8,146.07 c 0,-75.8278 -61.2,-142.17156 -139.6,-142.17156 -67.2,0 -144.8,32.74216 -144.8,144.76156 v 337.77 c 0,80.14 57.8,141.312 143.1,141.312 81,0 141.3,-61.172 141.3,-146.472 v -34.481 h -87.9 v 29.301 c 0,34.469 -20.7,63.762 -54.3,63.762 -43.9,0 -54.3,-30.161 -54.3,-71.52 V 154.691 c 0,-35.332 13.8,-62.9019 53.4,-62.9019 24.2,0 55.2,13.7809 55.2,62.0429 v 30.16 h 87.9 V 146.07" /><path
         id="path64"
         style="fill:#ffffff;fill-opacity:1;fill-rule:nonzero;stroke:none"
         d="m 10389.4,622.57 h 261.9 v -82.718 h -174.1 V 359.77 h 151.7 v -82.731 h -151.7 V 96.9492 h 174.1 V 9.07031 h -261.9 V 622.57" /><path
         id="path66"
         style="fill:#ffffff;fill-opacity:1;fill-rule:nonzero;stroke:none"
         d="M 4268.08,3329.9 H 3160.35 L 1609.43,1088.21 1414.78,2225.29 H 307.473 L 847.457,0 H 1922.22 l 2345.86,3329.9" /><path
         id="path68"
         style="fill:#ffffff;fill-opacity:1;fill-rule:nonzero;stroke:none"
         d="M 11064.2,3658.18 C 10440.5,3012.96 9652.36,2659.19 8746.44,2698.04 7224.34,2763.2 5815.21,3483.95 4359.11,3862.91 3616.91,4056.13 2875.41,4182.34 2106.43,4160.05 1351.69,4138.16 645.453,3885.72 0,3508.41 v 79.86 c 599.496,466.23 1235.29,798.69 1995.69,897.87 718.96,93.8 1488.73,-68.82 2165.73,-309.87 1411.63,-502.64 2867.23,-1232.39 4403.77,-1167.45 902.47,38.19 1701.51,315.53 2499.01,724.22 v -74.86" /></g></g></svg>